<mxfile host="app.diagrams.net" agent="Mozilla/5.0 (Windows NT 10.0; Win64; x64) AppleWebKit/537.36 (KHTML, like Gecko) Chrome/136.0.0.0 Safari/537.36 Edg/136.0.0.0" version="27.0.4">
  <diagram id="C5RBs43oDa-KdzZeNtuy" name="Page-1">
    <mxGraphModel dx="1476" dy="860" grid="1" gridSize="10" guides="1" tooltips="1" connect="1" arrows="1" fold="1" page="1" pageScale="1" pageWidth="827" pageHeight="1169" math="0" shadow="0">
      <root>
        <mxCell id="WIyWlLk6GJQsqaUBKTNV-0" />
        <mxCell id="WIyWlLk6GJQsqaUBKTNV-1" parent="WIyWlLk6GJQsqaUBKTNV-0" />
        <mxCell id="4tdtXqN-NuITM5VR41cq-0" value="End" style="ellipse;whiteSpace=wrap;html=1;fillColor=none;" vertex="1" parent="WIyWlLk6GJQsqaUBKTNV-1">
          <mxGeometry x="320" y="727" width="76" height="50" as="geometry" />
        </mxCell>
        <mxCell id="4tdtXqN-NuITM5VR41cq-6" style="edgeStyle=orthogonalEdgeStyle;rounded=0;orthogonalLoop=1;jettySize=auto;html=1;exitX=0.5;exitY=1;exitDx=0;exitDy=0;entryX=0.5;entryY=0;entryDx=0;entryDy=0;" edge="1" parent="WIyWlLk6GJQsqaUBKTNV-1" source="4tdtXqN-NuITM5VR41cq-1" target="4tdtXqN-NuITM5VR41cq-4">
          <mxGeometry relative="1" as="geometry" />
        </mxCell>
        <mxCell id="4tdtXqN-NuITM5VR41cq-1" value="Start" style="ellipse;whiteSpace=wrap;html=1;fillColor=none;" vertex="1" parent="WIyWlLk6GJQsqaUBKTNV-1">
          <mxGeometry x="355" y="80" width="70" height="40" as="geometry" />
        </mxCell>
        <mxCell id="4tdtXqN-NuITM5VR41cq-15" value="" style="edgeStyle=orthogonalEdgeStyle;rounded=0;orthogonalLoop=1;jettySize=auto;html=1;" edge="1" parent="WIyWlLk6GJQsqaUBKTNV-1" source="4tdtXqN-NuITM5VR41cq-3" target="4tdtXqN-NuITM5VR41cq-13">
          <mxGeometry relative="1" as="geometry" />
        </mxCell>
        <mxCell id="4tdtXqN-NuITM5VR41cq-3" value="Role Based Authorization" style="rounded=0;whiteSpace=wrap;html=1;fillColor=none;" vertex="1" parent="WIyWlLk6GJQsqaUBKTNV-1">
          <mxGeometry x="490" y="181" width="90" height="38" as="geometry" />
        </mxCell>
        <mxCell id="4tdtXqN-NuITM5VR41cq-8" value="" style="edgeStyle=orthogonalEdgeStyle;rounded=0;orthogonalLoop=1;jettySize=auto;html=1;" edge="1" parent="WIyWlLk6GJQsqaUBKTNV-1" source="4tdtXqN-NuITM5VR41cq-4" target="4tdtXqN-NuITM5VR41cq-7">
          <mxGeometry relative="1" as="geometry" />
        </mxCell>
        <mxCell id="4tdtXqN-NuITM5VR41cq-9" value="" style="edgeStyle=orthogonalEdgeStyle;rounded=0;orthogonalLoop=1;jettySize=auto;html=1;" edge="1" parent="WIyWlLk6GJQsqaUBKTNV-1" source="4tdtXqN-NuITM5VR41cq-4" target="4tdtXqN-NuITM5VR41cq-3">
          <mxGeometry relative="1" as="geometry" />
        </mxCell>
        <mxCell id="4tdtXqN-NuITM5VR41cq-4" value="Log In" style="rhombus;whiteSpace=wrap;html=1;fillColor=none;" vertex="1" parent="WIyWlLk6GJQsqaUBKTNV-1">
          <mxGeometry x="350" y="160" width="80" height="80" as="geometry" />
        </mxCell>
        <mxCell id="4tdtXqN-NuITM5VR41cq-16" value="" style="edgeStyle=orthogonalEdgeStyle;rounded=0;orthogonalLoop=1;jettySize=auto;html=1;" edge="1" parent="WIyWlLk6GJQsqaUBKTNV-1" source="4tdtXqN-NuITM5VR41cq-7" target="4tdtXqN-NuITM5VR41cq-12">
          <mxGeometry relative="1" as="geometry" />
        </mxCell>
        <mxCell id="4tdtXqN-NuITM5VR41cq-7" value="OTP Authentication" style="rounded=0;whiteSpace=wrap;html=1;fillColor=none;" vertex="1" parent="WIyWlLk6GJQsqaUBKTNV-1">
          <mxGeometry x="180" y="181" width="90" height="38" as="geometry" />
        </mxCell>
        <mxCell id="4tdtXqN-NuITM5VR41cq-10" value="&lt;span style=&quot;text-wrap-mode: wrap;&quot;&gt;Citizen&lt;/span&gt;" style="text;html=1;align=center;verticalAlign=middle;resizable=0;points=[];autosize=1;strokeColor=none;fillColor=none;" vertex="1" parent="WIyWlLk6GJQsqaUBKTNV-1">
          <mxGeometry x="280" y="178" width="60" height="30" as="geometry" />
        </mxCell>
        <mxCell id="4tdtXqN-NuITM5VR41cq-11" value="Admin" style="text;html=1;align=center;verticalAlign=middle;resizable=0;points=[];autosize=1;strokeColor=none;fillColor=none;" vertex="1" parent="WIyWlLk6GJQsqaUBKTNV-1">
          <mxGeometry x="420" y="178" width="60" height="30" as="geometry" />
        </mxCell>
        <mxCell id="4tdtXqN-NuITM5VR41cq-24" style="edgeStyle=orthogonalEdgeStyle;rounded=0;orthogonalLoop=1;jettySize=auto;html=1;exitX=0.5;exitY=1;exitDx=0;exitDy=0;" edge="1" parent="WIyWlLk6GJQsqaUBKTNV-1" source="4tdtXqN-NuITM5VR41cq-12" target="4tdtXqN-NuITM5VR41cq-23">
          <mxGeometry relative="1" as="geometry" />
        </mxCell>
        <mxCell id="4tdtXqN-NuITM5VR41cq-28" value="Yes" style="edgeLabel;html=1;align=center;verticalAlign=middle;resizable=0;points=[];" vertex="1" connectable="0" parent="4tdtXqN-NuITM5VR41cq-24">
          <mxGeometry x="-0.5099" y="-2" relative="1" as="geometry">
            <mxPoint as="offset" />
          </mxGeometry>
        </mxCell>
        <mxCell id="4tdtXqN-NuITM5VR41cq-53" style="edgeStyle=orthogonalEdgeStyle;rounded=0;orthogonalLoop=1;jettySize=auto;html=1;exitX=0;exitY=0.5;exitDx=0;exitDy=0;" edge="1" parent="WIyWlLk6GJQsqaUBKTNV-1" source="4tdtXqN-NuITM5VR41cq-12">
          <mxGeometry relative="1" as="geometry">
            <mxPoint x="390" y="140" as="targetPoint" />
            <Array as="points">
              <mxPoint x="140" y="285" />
              <mxPoint x="140" y="140" />
            </Array>
          </mxGeometry>
        </mxCell>
        <mxCell id="4tdtXqN-NuITM5VR41cq-55" value="No" style="edgeLabel;html=1;align=center;verticalAlign=middle;resizable=0;points=[];" vertex="1" connectable="0" parent="4tdtXqN-NuITM5VR41cq-53">
          <mxGeometry x="-0.8598" y="-1" relative="1" as="geometry">
            <mxPoint as="offset" />
          </mxGeometry>
        </mxCell>
        <mxCell id="4tdtXqN-NuITM5VR41cq-12" value="Loged In?" style="rhombus;whiteSpace=wrap;html=1;fillColor=none;" vertex="1" parent="WIyWlLk6GJQsqaUBKTNV-1">
          <mxGeometry x="192" y="250" width="65" height="70" as="geometry" />
        </mxCell>
        <mxCell id="4tdtXqN-NuITM5VR41cq-27" value="" style="edgeStyle=orthogonalEdgeStyle;rounded=0;orthogonalLoop=1;jettySize=auto;html=1;" edge="1" parent="WIyWlLk6GJQsqaUBKTNV-1" source="4tdtXqN-NuITM5VR41cq-13" target="4tdtXqN-NuITM5VR41cq-25">
          <mxGeometry relative="1" as="geometry" />
        </mxCell>
        <mxCell id="4tdtXqN-NuITM5VR41cq-29" value="Yes" style="edgeLabel;html=1;align=center;verticalAlign=middle;resizable=0;points=[];" vertex="1" connectable="0" parent="4tdtXqN-NuITM5VR41cq-27">
          <mxGeometry x="-0.4038" relative="1" as="geometry">
            <mxPoint as="offset" />
          </mxGeometry>
        </mxCell>
        <mxCell id="4tdtXqN-NuITM5VR41cq-52" style="edgeStyle=orthogonalEdgeStyle;rounded=0;orthogonalLoop=1;jettySize=auto;html=1;exitX=1;exitY=0.5;exitDx=0;exitDy=0;" edge="1" parent="WIyWlLk6GJQsqaUBKTNV-1" source="4tdtXqN-NuITM5VR41cq-13">
          <mxGeometry relative="1" as="geometry">
            <mxPoint x="390" y="140" as="targetPoint" />
            <Array as="points">
              <mxPoint x="640" y="285" />
              <mxPoint x="640" y="140" />
            </Array>
          </mxGeometry>
        </mxCell>
        <mxCell id="4tdtXqN-NuITM5VR41cq-54" value="No" style="edgeLabel;html=1;align=center;verticalAlign=middle;resizable=0;points=[];" vertex="1" connectable="0" parent="4tdtXqN-NuITM5VR41cq-52">
          <mxGeometry x="-0.8317" y="-2" relative="1" as="geometry">
            <mxPoint y="-2" as="offset" />
          </mxGeometry>
        </mxCell>
        <mxCell id="4tdtXqN-NuITM5VR41cq-13" value="Loged In?" style="rhombus;whiteSpace=wrap;html=1;fillColor=none;" vertex="1" parent="WIyWlLk6GJQsqaUBKTNV-1">
          <mxGeometry x="503" y="250" width="65" height="70" as="geometry" />
        </mxCell>
        <mxCell id="4tdtXqN-NuITM5VR41cq-32" value="" style="edgeStyle=orthogonalEdgeStyle;rounded=0;orthogonalLoop=1;jettySize=auto;html=1;" edge="1" parent="WIyWlLk6GJQsqaUBKTNV-1" source="4tdtXqN-NuITM5VR41cq-23" target="4tdtXqN-NuITM5VR41cq-30">
          <mxGeometry relative="1" as="geometry" />
        </mxCell>
        <mxCell id="4tdtXqN-NuITM5VR41cq-23" value="Submit Incidents" style="rounded=0;whiteSpace=wrap;html=1;fillColor=none;" vertex="1" parent="WIyWlLk6GJQsqaUBKTNV-1">
          <mxGeometry x="164.5" y="357" width="120" height="40" as="geometry" />
        </mxCell>
        <mxCell id="4tdtXqN-NuITM5VR41cq-33" value="" style="edgeStyle=orthogonalEdgeStyle;rounded=0;orthogonalLoop=1;jettySize=auto;html=1;" edge="1" parent="WIyWlLk6GJQsqaUBKTNV-1" source="4tdtXqN-NuITM5VR41cq-25" target="4tdtXqN-NuITM5VR41cq-31">
          <mxGeometry relative="1" as="geometry" />
        </mxCell>
        <mxCell id="4tdtXqN-NuITM5VR41cq-25" value="Verify and View Reports" style="rounded=0;whiteSpace=wrap;html=1;fillColor=none;" vertex="1" parent="WIyWlLk6GJQsqaUBKTNV-1">
          <mxGeometry x="476" y="356" width="120" height="40" as="geometry" />
        </mxCell>
        <mxCell id="4tdtXqN-NuITM5VR41cq-38" style="edgeStyle=orthogonalEdgeStyle;rounded=0;orthogonalLoop=1;jettySize=auto;html=1;exitX=0.5;exitY=1;exitDx=0;exitDy=0;entryX=0.5;entryY=0;entryDx=0;entryDy=0;" edge="1" parent="WIyWlLk6GJQsqaUBKTNV-1" source="4tdtXqN-NuITM5VR41cq-30" target="4tdtXqN-NuITM5VR41cq-34">
          <mxGeometry relative="1" as="geometry" />
        </mxCell>
        <mxCell id="4tdtXqN-NuITM5VR41cq-30" value="View Reports" style="rounded=0;whiteSpace=wrap;html=1;fillColor=none;" vertex="1" parent="WIyWlLk6GJQsqaUBKTNV-1">
          <mxGeometry x="164" y="427" width="120" height="30" as="geometry" />
        </mxCell>
        <mxCell id="4tdtXqN-NuITM5VR41cq-41" value="" style="edgeStyle=orthogonalEdgeStyle;rounded=0;orthogonalLoop=1;jettySize=auto;html=1;" edge="1" parent="WIyWlLk6GJQsqaUBKTNV-1" source="4tdtXqN-NuITM5VR41cq-31" target="4tdtXqN-NuITM5VR41cq-40">
          <mxGeometry relative="1" as="geometry" />
        </mxCell>
        <mxCell id="4tdtXqN-NuITM5VR41cq-31" value="Filter Reports" style="rounded=0;whiteSpace=wrap;html=1;fillColor=none;" vertex="1" parent="WIyWlLk6GJQsqaUBKTNV-1">
          <mxGeometry x="476" y="426" width="120" height="30" as="geometry" />
        </mxCell>
        <mxCell id="4tdtXqN-NuITM5VR41cq-39" style="edgeStyle=orthogonalEdgeStyle;rounded=0;orthogonalLoop=1;jettySize=auto;html=1;exitX=0.5;exitY=1;exitDx=0;exitDy=0;entryX=0.5;entryY=0;entryDx=0;entryDy=0;" edge="1" parent="WIyWlLk6GJQsqaUBKTNV-1" source="4tdtXqN-NuITM5VR41cq-34" target="4tdtXqN-NuITM5VR41cq-35">
          <mxGeometry relative="1" as="geometry" />
        </mxCell>
        <mxCell id="4tdtXqN-NuITM5VR41cq-34" value="Get Notifications" style="rounded=0;whiteSpace=wrap;html=1;fillColor=none;" vertex="1" parent="WIyWlLk6GJQsqaUBKTNV-1">
          <mxGeometry x="164" y="484" width="120" height="30" as="geometry" />
        </mxCell>
        <mxCell id="4tdtXqN-NuITM5VR41cq-49" style="edgeStyle=orthogonalEdgeStyle;rounded=0;orthogonalLoop=1;jettySize=auto;html=1;exitX=0.5;exitY=1;exitDx=0;exitDy=0;entryX=0.5;entryY=0;entryDx=0;entryDy=0;" edge="1" parent="WIyWlLk6GJQsqaUBKTNV-1" source="4tdtXqN-NuITM5VR41cq-35" target="4tdtXqN-NuITM5VR41cq-0">
          <mxGeometry relative="1" as="geometry" />
        </mxCell>
        <mxCell id="4tdtXqN-NuITM5VR41cq-35" value="View Map" style="rounded=0;whiteSpace=wrap;html=1;fillColor=none;" vertex="1" parent="WIyWlLk6GJQsqaUBKTNV-1">
          <mxGeometry x="164" y="545" width="120" height="30" as="geometry" />
        </mxCell>
        <mxCell id="4tdtXqN-NuITM5VR41cq-43" value="" style="edgeStyle=orthogonalEdgeStyle;rounded=0;orthogonalLoop=1;jettySize=auto;html=1;" edge="1" parent="WIyWlLk6GJQsqaUBKTNV-1" source="4tdtXqN-NuITM5VR41cq-40" target="4tdtXqN-NuITM5VR41cq-42">
          <mxGeometry relative="1" as="geometry" />
        </mxCell>
        <mxCell id="4tdtXqN-NuITM5VR41cq-40" value="Update Incident" style="rounded=0;whiteSpace=wrap;html=1;fillColor=none;" vertex="1" parent="WIyWlLk6GJQsqaUBKTNV-1">
          <mxGeometry x="476" y="482" width="120" height="30" as="geometry" />
        </mxCell>
        <mxCell id="4tdtXqN-NuITM5VR41cq-45" value="" style="edgeStyle=orthogonalEdgeStyle;rounded=0;orthogonalLoop=1;jettySize=auto;html=1;" edge="1" parent="WIyWlLk6GJQsqaUBKTNV-1" source="4tdtXqN-NuITM5VR41cq-42" target="4tdtXqN-NuITM5VR41cq-44">
          <mxGeometry relative="1" as="geometry" />
        </mxCell>
        <mxCell id="4tdtXqN-NuITM5VR41cq-42" value="Send Alerts" style="rounded=0;whiteSpace=wrap;html=1;fillColor=none;" vertex="1" parent="WIyWlLk6GJQsqaUBKTNV-1">
          <mxGeometry x="476" y="541" width="120" height="30" as="geometry" />
        </mxCell>
        <mxCell id="4tdtXqN-NuITM5VR41cq-47" value="" style="edgeStyle=orthogonalEdgeStyle;rounded=0;orthogonalLoop=1;jettySize=auto;html=1;" edge="1" parent="WIyWlLk6GJQsqaUBKTNV-1" source="4tdtXqN-NuITM5VR41cq-44" target="4tdtXqN-NuITM5VR41cq-46">
          <mxGeometry relative="1" as="geometry" />
        </mxCell>
        <mxCell id="4tdtXqN-NuITM5VR41cq-44" value="Manage User" style="rounded=0;whiteSpace=wrap;html=1;fillColor=none;" vertex="1" parent="WIyWlLk6GJQsqaUBKTNV-1">
          <mxGeometry x="476" y="595" width="120" height="30" as="geometry" />
        </mxCell>
        <mxCell id="4tdtXqN-NuITM5VR41cq-50" style="edgeStyle=orthogonalEdgeStyle;rounded=0;orthogonalLoop=1;jettySize=auto;html=1;exitX=0.5;exitY=1;exitDx=0;exitDy=0;" edge="1" parent="WIyWlLk6GJQsqaUBKTNV-1" source="4tdtXqN-NuITM5VR41cq-46" target="4tdtXqN-NuITM5VR41cq-0">
          <mxGeometry relative="1" as="geometry">
            <Array as="points">
              <mxPoint x="537" y="700" />
              <mxPoint x="358" y="700" />
            </Array>
          </mxGeometry>
        </mxCell>
        <mxCell id="4tdtXqN-NuITM5VR41cq-46" value="Generate Reports" style="rounded=0;whiteSpace=wrap;html=1;fillColor=none;" vertex="1" parent="WIyWlLk6GJQsqaUBKTNV-1">
          <mxGeometry x="471" y="652" width="131" height="30" as="geometry" />
        </mxCell>
      </root>
    </mxGraphModel>
  </diagram>
</mxfile>
